<mxfile host="app.diagrams.net" agent="Mozilla/5.0 (Windows NT 10.0; Win64; x64) AppleWebKit/537.36 (KHTML, like Gecko) Chrome/134.0.0.0 Safari/537.36 Edg/134.0.0.0" version="26.1.1">
  <diagram name="Page-1" id="2YBvvXClWsGukQMizWep">
    <mxGraphModel grid="1" page="1" gridSize="10" guides="1" tooltips="1" connect="1" arrows="1" fold="1" pageScale="1" pageWidth="850" pageHeight="1100" math="0" shadow="0">
      <root>
        <mxCell id="0" />
        <mxCell id="1" parent="0" />
        <mxCell id="OM3rYMhz1ukCEq3H_O-d-12" value="&lt;b&gt;3.GetClass()&lt;/b&gt;" style="endArrow=classic;html=1;rounded=0;spacingTop=-23;" edge="1" parent="1">
          <mxGeometry x="0.0273" y="-2" width="50" height="50" relative="1" as="geometry">
            <mxPoint x="-65" y="192" as="sourcePoint" />
            <mxPoint x="84.99999999999977" y="192" as="targetPoint" />
            <mxPoint as="offset" />
          </mxGeometry>
        </mxCell>
        <mxCell id="OM3rYMhz1ukCEq3H_O-d-21" value="&lt;b&gt;9. ConfirmRequest()&lt;/b&gt;" style="endArrow=classic;html=1;rounded=0;spacingTop=-23;" edge="1" parent="1" target="OM3rYMhz1ukCEq3H_O-d-24">
          <mxGeometry x="0.0273" y="-2" width="50" height="50" relative="1" as="geometry">
            <mxPoint x="-65" y="311" as="sourcePoint" />
            <mxPoint x="80" y="310" as="targetPoint" />
            <mxPoint as="offset" />
          </mxGeometry>
        </mxCell>
        <mxCell id="OM3rYMhz1ukCEq3H_O-d-25" value="&lt;b&gt;10. UpdateDatabase()&lt;/b&gt;" style="endArrow=classic;html=1;rounded=0;spacingTop=-23;" edge="1" parent="1">
          <mxGeometry x="0.0273" y="-2" width="50" height="50" relative="1" as="geometry">
            <mxPoint x="90" y="350" as="sourcePoint" />
            <mxPoint x="264.5" y="350" as="targetPoint" />
            <mxPoint as="offset" />
          </mxGeometry>
        </mxCell>
        <mxCell id="OM3rYMhz1ukCEq3H_O-d-14" value="&lt;b&gt;5.Info&lt;/b&gt;" style="endArrow=open;html=1;rounded=0;endFill=0;dashed=1;spacingTop=-14;" edge="1" parent="1">
          <mxGeometry width="50" height="50" relative="1" as="geometry">
            <mxPoint x="269.5" y="230" as="sourcePoint" />
            <mxPoint x="94.99999999999977" y="230" as="targetPoint" />
          </mxGeometry>
        </mxCell>
        <mxCell id="OM3rYMhz1ukCEq3H_O-d-13" value="&lt;b&gt;4.GetInfo()&lt;/b&gt;" style="endArrow=classic;html=1;rounded=0;spacingTop=-23;" edge="1" parent="1">
          <mxGeometry x="0.0273" y="-2" width="50" height="50" relative="1" as="geometry">
            <mxPoint x="88.99999999999977" y="194" as="sourcePoint" />
            <mxPoint x="263.5" y="194" as="targetPoint" />
            <mxPoint as="offset" />
          </mxGeometry>
        </mxCell>
        <mxCell id="aM9ryv3xv72pqoxQDRHE-1" value=":AttendaceController" style="shape=umlLifeline;perimeter=lifelinePerimeter;whiteSpace=wrap;html=1;container=0;dropTarget=0;collapsible=0;recursiveResize=0;outlineConnect=0;portConstraint=eastwest;newEdgeStyle={&quot;edgeStyle&quot;:&quot;elbowEdgeStyle&quot;,&quot;elbow&quot;:&quot;vertical&quot;,&quot;curved&quot;:0,&quot;rounded&quot;:0};fontStyle=1" vertex="1" parent="1">
          <mxGeometry x="30" y="50" width="120" height="430" as="geometry" />
        </mxCell>
        <mxCell id="aM9ryv3xv72pqoxQDRHE-2" value="" style="html=1;points=[];perimeter=orthogonalPerimeter;outlineConnect=0;targetShapes=umlLifeline;portConstraint=eastwest;newEdgeStyle={&quot;edgeStyle&quot;:&quot;elbowEdgeStyle&quot;,&quot;elbow&quot;:&quot;vertical&quot;,&quot;curved&quot;:0,&quot;rounded&quot;:0};" vertex="1" parent="aM9ryv3xv72pqoxQDRHE-1">
          <mxGeometry x="55" y="130" width="10" height="60" as="geometry" />
        </mxCell>
        <mxCell id="OM3rYMhz1ukCEq3H_O-d-24" value="" style="html=1;points=[];perimeter=orthogonalPerimeter;outlineConnect=0;targetShapes=umlLifeline;portConstraint=eastwest;newEdgeStyle={&quot;edgeStyle&quot;:&quot;elbowEdgeStyle&quot;,&quot;elbow&quot;:&quot;vertical&quot;,&quot;curved&quot;:0,&quot;rounded&quot;:0};" vertex="1" parent="aM9ryv3xv72pqoxQDRHE-1">
          <mxGeometry x="54" y="246" width="10" height="124" as="geometry" />
        </mxCell>
        <mxCell id="aM9ryv3xv72pqoxQDRHE-5" value=":AttendanceInfo" style="shape=umlLifeline;perimeter=lifelinePerimeter;whiteSpace=wrap;html=1;container=0;dropTarget=0;collapsible=0;recursiveResize=0;outlineConnect=0;portConstraint=eastwest;newEdgeStyle={&quot;edgeStyle&quot;:&quot;elbowEdgeStyle&quot;,&quot;elbow&quot;:&quot;vertical&quot;,&quot;curved&quot;:0,&quot;rounded&quot;:0};fontStyle=1" vertex="1" parent="1">
          <mxGeometry x="220" y="50" width="100" height="430" as="geometry" />
        </mxCell>
        <mxCell id="OM3rYMhz1ukCEq3H_O-d-1" value=":AttendanceInterface" style="shape=umlLifeline;perimeter=lifelinePerimeter;whiteSpace=wrap;html=1;container=0;dropTarget=0;collapsible=0;recursiveResize=0;outlineConnect=0;portConstraint=eastwest;newEdgeStyle={&quot;edgeStyle&quot;:&quot;elbowEdgeStyle&quot;,&quot;elbow&quot;:&quot;vertical&quot;,&quot;curved&quot;:0,&quot;rounded&quot;:0};fontStyle=1" vertex="1" parent="1">
          <mxGeometry x="-130" y="50" width="130" height="440" as="geometry" />
        </mxCell>
        <mxCell id="OM3rYMhz1ukCEq3H_O-d-2" value="" style="html=1;points=[];perimeter=orthogonalPerimeter;outlineConnect=0;targetShapes=umlLifeline;portConstraint=eastwest;newEdgeStyle={&quot;edgeStyle&quot;:&quot;elbowEdgeStyle&quot;,&quot;elbow&quot;:&quot;vertical&quot;,&quot;curved&quot;:0,&quot;rounded&quot;:0};" vertex="1" parent="OM3rYMhz1ukCEq3H_O-d-1">
          <mxGeometry x="60" y="90" width="10" height="280" as="geometry" />
        </mxCell>
        <mxCell id="OM3rYMhz1ukCEq3H_O-d-5" value="&lt;b&gt;Giảng viên&lt;/b&gt;" style="shape=umlActor;verticalLabelPosition=bottom;verticalAlign=top;html=1;outlineConnect=0;" vertex="1" parent="1">
          <mxGeometry x="-310" y="7" width="30" height="60" as="geometry" />
        </mxCell>
        <mxCell id="aM9ryv3xv72pqoxQDRHE-6" value="" style="html=1;points=[];perimeter=orthogonalPerimeter;outlineConnect=0;targetShapes=umlLifeline;portConstraint=eastwest;newEdgeStyle={&quot;edgeStyle&quot;:&quot;elbowEdgeStyle&quot;,&quot;elbow&quot;:&quot;vertical&quot;,&quot;curved&quot;:0,&quot;rounded&quot;:0};" vertex="1" parent="1">
          <mxGeometry x="265" y="180" width="10" height="60" as="geometry" />
        </mxCell>
        <mxCell id="OM3rYMhz1ukCEq3H_O-d-9" value="&lt;b&gt;1. SelectClass()&lt;/b&gt;" style="endArrow=classic;html=1;rounded=0;spacingTop=-23;" edge="1" parent="1" target="OM3rYMhz1ukCEq3H_O-d-2">
          <mxGeometry x="0.0273" y="-2" width="50" height="50" relative="1" as="geometry">
            <mxPoint x="-290" y="148" as="sourcePoint" />
            <mxPoint x="-75" y="148" as="targetPoint" />
            <mxPoint as="offset" />
          </mxGeometry>
        </mxCell>
        <mxCell id="OM3rYMhz1ukCEq3H_O-d-10" value="&lt;b&gt;2. SelectMode(mode = &quot;manual&quot;)&lt;/b&gt;" style="endArrow=classic;html=1;rounded=0;spacingTop=-23;" edge="1" parent="1" target="OM3rYMhz1ukCEq3H_O-d-2">
          <mxGeometry x="0.0273" y="-2" width="50" height="50" relative="1" as="geometry">
            <mxPoint x="-290" y="191" as="sourcePoint" />
            <mxPoint x="-75" y="191" as="targetPoint" />
            <mxPoint as="offset" />
          </mxGeometry>
        </mxCell>
        <mxCell id="OM3rYMhz1ukCEq3H_O-d-15" value="&lt;b&gt;6.ClassMemberList(classID)&lt;/b&gt;" style="endArrow=open;html=1;rounded=0;endFill=0;dashed=1;spacingTop=-14;fontSize=10;" edge="1" parent="1">
          <mxGeometry width="50" height="50" relative="1" as="geometry">
            <mxPoint x="85" y="230" as="sourcePoint" />
            <mxPoint x="-60" y="230" as="targetPoint" />
          </mxGeometry>
        </mxCell>
        <mxCell id="OM3rYMhz1ukCEq3H_O-d-18" value="&lt;b&gt;Điểm danh thủ công&lt;/b&gt;" style="shape=umlFrame;whiteSpace=wrap;html=1;pointerEvents=0;recursiveResize=0;container=1;collapsible=0;width=160;fontSize=14;" vertex="1" parent="1">
          <mxGeometry x="-450" y="-50" width="1040" height="560" as="geometry" />
        </mxCell>
        <mxCell id="OM3rYMhz1ukCEq3H_O-d-28" value="" style="line;strokeWidth=1;direction=south;html=1;perimeter=backbonePerimeter;points=[];outlineConnect=0;dashed=1;" vertex="1" parent="OM3rYMhz1ukCEq3H_O-d-18">
          <mxGeometry x="150" y="140" width="10" height="390" as="geometry" />
        </mxCell>
        <mxCell id="OM3rYMhz1ukCEq3H_O-d-19" value="&lt;b&gt;7. MarkAttendance(student, status)&lt;/b&gt;" style="endArrow=classic;html=1;rounded=0;spacingTop=-23;entryX=0;entryY=0.5;entryDx=0;entryDy=0;entryPerimeter=0;" edge="1" parent="OM3rYMhz1ukCEq3H_O-d-18" target="OM3rYMhz1ukCEq3H_O-d-2">
          <mxGeometry x="0.0273" y="-2" width="50" height="50" relative="1" as="geometry">
            <mxPoint x="160" y="330" as="sourcePoint" />
            <mxPoint x="375" y="330" as="targetPoint" />
            <mxPoint as="offset" />
          </mxGeometry>
        </mxCell>
        <mxCell id="OM3rYMhz1ukCEq3H_O-d-20" value="&lt;b&gt;8. ConfirmAttendance()&lt;/b&gt;" style="endArrow=classic;html=1;rounded=0;spacingTop=-23;" edge="1" parent="OM3rYMhz1ukCEq3H_O-d-18" target="OM3rYMhz1ukCEq3H_O-d-2">
          <mxGeometry x="0.0273" y="-2" width="50" height="50" relative="1" as="geometry">
            <mxPoint x="160" y="360" as="sourcePoint" />
            <mxPoint x="375" y="360" as="targetPoint" />
            <mxPoint as="offset" />
          </mxGeometry>
        </mxCell>
        <mxCell id="OM3rYMhz1ukCEq3H_O-d-26" value="" style="html=1;points=[];perimeter=orthogonalPerimeter;outlineConnect=0;targetShapes=umlLifeline;portConstraint=eastwest;newEdgeStyle={&quot;edgeStyle&quot;:&quot;elbowEdgeStyle&quot;,&quot;elbow&quot;:&quot;vertical&quot;,&quot;curved&quot;:0,&quot;rounded&quot;:0};" vertex="1" parent="OM3rYMhz1ukCEq3H_O-d-18">
          <mxGeometry x="715" y="390" width="10" height="16" as="geometry" />
        </mxCell>
        <mxCell id="OM3rYMhz1ukCEq3H_O-d-32" value="&lt;b&gt;loop&lt;/b&gt;" style="shape=umlFrame;whiteSpace=wrap;html=1;pointerEvents=0;recursiveResize=0;container=1;collapsible=0;width=60;height=30;" vertex="1" parent="OM3rYMhz1ukCEq3H_O-d-18">
          <mxGeometry x="30" y="300" width="980" height="220" as="geometry" />
        </mxCell>
        <mxCell id="OM3rYMhz1ukCEq3H_O-d-31" value="&lt;b&gt;11. Announce()&lt;/b&gt;" style="endArrow=classic;html=1;rounded=0;spacingTop=-23;" edge="1" parent="OM3rYMhz1ukCEq3H_O-d-32" target="OM3rYMhz1ukCEq3H_O-d-36">
          <mxGeometry x="0.0273" y="-2" width="50" height="50" relative="1" as="geometry">
            <mxPoint x="514.3235294117644" y="117.40999999999985" as="sourcePoint" />
            <mxPoint x="955.0000000000001" y="117.41000000000008" as="targetPoint" />
            <mxPoint as="offset" />
          </mxGeometry>
        </mxCell>
        <mxCell id="OM3rYMhz1ukCEq3H_O-d-33" value="&lt;b&gt;alt&lt;/b&gt;" style="shape=umlFrame;whiteSpace=wrap;html=1;pointerEvents=0;recursiveResize=0;container=1;collapsible=0;width=60;height=30;" vertex="1" parent="OM3rYMhz1ukCEq3H_O-d-32">
          <mxGeometry x="30" y="40" width="500" height="150" as="geometry" />
        </mxCell>
        <mxCell id="OM3rYMhz1ukCEq3H_O-d-34" value="" style="line;strokeWidth=1;html=1;dashed=1;" vertex="1" parent="OM3rYMhz1ukCEq3H_O-d-33">
          <mxGeometry y="80" width="500" height="10" as="geometry" />
        </mxCell>
        <mxCell id="OM3rYMhz1ukCEq3H_O-d-35" value="&lt;b&gt;12. Error: Incomplete&lt;/b&gt;" style="endArrow=open;html=1;rounded=0;endFill=0;dashed=1;spacingTop=-14;" edge="1" parent="OM3rYMhz1ukCEq3H_O-d-33" target="OM3rYMhz1ukCEq3H_O-d-2">
          <mxGeometry width="50" height="50" relative="1" as="geometry">
            <mxPoint x="475" y="110" as="sourcePoint" />
            <mxPoint x="330" y="110" as="targetPoint" />
          </mxGeometry>
        </mxCell>
        <mxCell id="OM3rYMhz1ukCEq3H_O-d-6" value="" style="html=1;points=[];perimeter=orthogonalPerimeter;outlineConnect=0;targetShapes=umlLifeline;portConstraint=eastwest;newEdgeStyle={&quot;edgeStyle&quot;:&quot;elbowEdgeStyle&quot;,&quot;elbow&quot;:&quot;vertical&quot;,&quot;curved&quot;:0,&quot;rounded&quot;:0};" vertex="1" parent="1">
          <mxGeometry x="-300" y="140" width="10" height="180" as="geometry" />
        </mxCell>
        <mxCell id="OM3rYMhz1ukCEq3H_O-d-29" value="&lt;b&gt;Sinh viên&lt;/b&gt;" style="shape=umlActor;verticalLabelPosition=bottom;verticalAlign=top;html=1;outlineConnect=0;" vertex="1" parent="1">
          <mxGeometry x="520" y="7" width="30" height="60" as="geometry" />
        </mxCell>
        <mxCell id="OM3rYMhz1ukCEq3H_O-d-30" value="" style="line;strokeWidth=1;direction=south;html=1;dashed=1;" vertex="1" parent="1">
          <mxGeometry x="530" y="100" width="10" height="400" as="geometry" />
        </mxCell>
        <mxCell id="OM3rYMhz1ukCEq3H_O-d-36" value="" style="html=1;points=[];perimeter=orthogonalPerimeter;outlineConnect=0;targetShapes=umlLifeline;portConstraint=eastwest;newEdgeStyle={&quot;edgeStyle&quot;:&quot;elbowEdgeStyle&quot;,&quot;elbow&quot;:&quot;vertical&quot;,&quot;curved&quot;:0,&quot;rounded&quot;:0};" vertex="1" parent="1">
          <mxGeometry x="530" y="359" width="10" height="16" as="geometry" />
        </mxCell>
      </root>
    </mxGraphModel>
  </diagram>
</mxfile>
